<svg width="171" height="46" viewBox="0 0 171 46" fill="none" xmlns="http://www.w3.org/2000/svg">
<path d="M20.554 46C16.1269 46 12.3745 45.1577 9.29671 43.4732C6.26105 41.7887 3.94214 39.2404 2.33999 35.8282C0.779996 32.416 0 28.1399 0 23C0 15.3117 1.81296 9.56713 5.43889 5.7662C9.06482 1.92207 14.1453 0 20.6804 0C24.4329 0 27.7215 0.626291 30.5463 1.87887C33.4133 3.08826 35.6479 4.92394 37.2501 7.38591C38.8944 9.80469 39.7166 12.893 39.7166 16.6507H34.6571C34.6571 13.8432 34.0879 11.554 32.9496 9.7831C31.8112 7.96901 30.188 6.63005 28.0799 5.7662C26.0139 4.85915 23.5264 4.40563 20.6172 4.40563C17.4972 4.40563 14.7778 5.03192 12.4589 6.28451C10.14 7.53709 8.34807 9.50235 7.08321 12.1803C5.81835 14.815 5.18592 18.2704 5.18592 22.5465V23.907C5.18592 28.0967 5.81835 31.4873 7.08321 34.0789C8.34807 36.6704 10.14 38.5709 12.4589 39.7803C14.7778 40.9897 17.5183 41.5944 20.6804 41.5944C23.5896 41.5944 26.0982 41.1624 28.2063 40.2986C30.3144 39.3915 31.9377 38.0526 33.0761 36.2817C34.2144 34.4676 34.7836 32.1568 34.7836 29.3493H39.7166C39.7166 33.1502 38.8733 36.2817 37.1868 38.7437C35.5425 41.2056 33.2869 43.0413 30.4199 44.2507C27.5528 45.4169 24.2642 46 20.554 46Z" fill="#020202"/>
<path d="M65.3566 46C60.8875 46 57.0296 45.1577 53.7832 43.4732C50.5789 41.7455 48.1124 39.1756 46.3837 35.7634C44.6551 32.3512 43.7908 28.0967 43.7908 23C43.7908 17.8601 44.6551 13.6056 46.3837 10.2366C48.1124 6.82441 50.5789 4.27606 53.7832 2.59155C57.0296 0.863849 60.8875 0 65.3566 0C69.868 0 73.7258 0.863849 76.9301 2.59155C80.1766 4.27606 82.643 6.82441 84.3295 10.2366C86.0581 13.6056 86.9225 17.8601 86.9225 23C86.9225 28.0967 86.0581 32.3512 84.3295 35.7634C82.643 39.1756 80.1766 41.7455 76.9301 43.4732C73.7258 45.1577 69.868 46 65.3566 46ZM65.3566 41.5944C67.8442 41.5944 70.0999 41.2704 72.1236 40.6225C74.1474 39.9315 75.876 38.8516 77.3095 37.3831C78.7431 35.9146 79.8393 34.0573 80.5982 31.8113C81.3993 29.5653 81.7998 26.8657 81.7998 23.7127V22.3521C81.7998 19.1559 81.3993 16.4347 80.5982 14.1887C79.8393 11.9427 78.7431 10.0854 77.3095 8.6169C75.876 7.14836 74.1474 6.09014 72.1236 5.44225C70.0999 4.75117 67.8442 4.40563 65.3566 4.40563C62.8691 4.40563 60.6134 4.75117 58.5896 5.44225C56.608 6.09014 54.9005 7.14836 53.467 8.6169C52.0335 10.0854 50.9162 11.9427 50.1151 14.1887C49.3562 16.4347 48.9767 19.1559 48.9767 22.3521V23.7127C48.9767 26.8657 49.3562 29.5653 50.1151 31.8113C50.9162 34.0573 52.0335 35.9146 53.467 37.3831C54.9005 38.8516 56.608 39.9315 58.5896 40.6225C60.6134 41.2704 62.8691 41.5944 65.3566 41.5944Z" fill="#020202"/>
<path d="M93.6272 45.2225V0.777462H116.395C119.262 0.777462 121.623 1.33897 123.478 2.46197C125.375 3.54178 126.788 5.03192 127.715 6.93239C128.685 8.83286 129.17 10.9925 129.17 13.4113C129.17 16.5643 128.453 19.2423 127.019 21.4451C125.628 23.6047 123.773 25.138 121.454 26.0451L130.688 45.2225H125.185L116.521 26.9521H98.6234V45.2225H93.6272ZM98.6234 22.5465H115.889C118.461 22.5465 120.484 21.7474 121.96 20.1493C123.436 18.508 124.174 16.262 124.174 13.4113C124.174 11.6836 123.857 10.215 123.225 9.00563C122.592 7.79624 121.665 6.8676 120.442 6.21972C119.22 5.52864 117.702 5.1831 115.889 5.1831H98.6234V22.5465Z" fill="#020202"/>
<path d="M137.418 45.2225V0.777462H170.621V5.1831H142.414V20.2141H167.838V24.6845H142.414V40.8169H171V45.2225H137.418Z" fill="#020202"/>
</svg>
