<svg width="61" height="55" viewBox="0 0 61 55" fill="none" xmlns="http://www.w3.org/2000/svg">
<path d="M31.969 13.4865H24.4934C22.3941 13.4865 20.4542 14.587 19.4046 16.3733L14.5629 24.6131C13.5132 26.3995 13.5132 28.6003 14.5629 30.3867L19.4046 38.6265C20.4542 40.4128 22.3941 41.5133 24.4934 41.5133H31.969V13.4865Z" fill="#FCFEFF"/>
<path fill-rule="evenodd" clip-rule="evenodd" d="M10.9485 5.7735C13.0478 2.20085 16.9274 0 21.126 0H39.874C44.0726 0 47.9522 2.20085 50.0515 5.7735L59.4255 21.7265C61.5248 25.2992 61.5248 29.7008 59.4255 33.2735L50.0515 49.2265C47.9522 52.7992 44.0726 55 39.874 55H21.126C16.9274 55 13.0478 52.7992 10.9485 49.2265L1.57447 33.2735C-0.524824 29.7008 -0.524823 25.2992 1.57447 21.7265L10.9485 5.7735ZM21.126 5.7735H39.874C41.9733 5.7735 43.9131 6.87393 44.9628 8.66025L54.3368 24.6133C55.3864 26.3996 55.3864 28.6004 54.3368 30.3868L44.9628 46.3397C43.9131 48.1261 41.9733 49.2265 39.874 49.2265H21.126C19.0267 49.2265 17.0869 48.1261 16.0372 46.3397L6.66324 30.3867C5.6136 28.6004 5.6136 26.3996 6.66324 24.6132L16.0372 8.66025C17.0869 6.87393 19.0267 5.7735 21.126 5.7735Z" fill="#FCFEFF"/>
<path d="M31.969 13.4865H24.4934C22.3941 13.4865 20.4542 14.587 19.4046 16.3733L14.5629 24.6131C13.5132 26.3995 13.5132 28.6003 14.5629 30.3867L19.4046 38.6265C20.4542 40.4128 22.3941 41.5133 24.4934 41.5133H31.969V13.4865Z" fill="#FCFEFF"/>
</svg>
