<svg width="172" height="47" viewBox="0 0 172 47" fill="none" xmlns="http://www.w3.org/2000/svg">
<path d="M36.4387 16.0199H29.9476V7.24215C29.9476 6.25865 29.8001 5.64396 29.505 5.39809C29.21 5.10304 28.5953 4.95551 27.661 4.95551H8.77775C7.84343 4.95551 7.22874 5.10304 6.93369 5.39809C6.63864 5.64396 6.49111 6.25865 6.49111 7.24215V39.8452C6.49111 40.8287 6.63864 41.468 6.93369 41.7631C7.22874 42.0089 7.84343 42.1319 8.77775 42.1319H27.661C28.5953 42.1319 29.21 42.0089 29.505 41.7631C29.8001 41.468 29.9476 40.8287 29.9476 39.8452V31.0675H36.4387V40.6566C36.4387 44.5414 34.4963 46.4839 30.6115 46.4839H5.82725C1.94242 46.4839 0 44.5414 0 40.6566V6.43076C0 2.54593 1.94242 0.603516 5.82725 0.603516H30.6115C34.4963 0.603516 36.4387 2.54593 36.4387 6.43076V16.0199Z" fill="#040404"/>
<path d="M80.2946 6.43076V40.6566C80.2946 44.5414 78.3522 46.4839 74.4674 46.4839H50.347C46.4622 46.4839 44.5198 44.5414 44.5198 40.6566V6.43076C44.5198 2.54593 46.4622 0.603516 50.347 0.603516H74.4674C78.3522 0.603516 80.2946 2.54593 80.2946 6.43076ZM73.9511 39.8452V7.24215C73.9511 6.25865 73.8035 5.64396 73.5085 5.39809C73.2626 5.10304 72.6479 4.95551 71.6644 4.95551H53.2238C52.2403 4.95551 51.601 5.10304 51.3059 5.39809C51.0601 5.64396 50.9371 6.25865 50.9371 7.24215V39.8452C50.9371 40.8287 51.0601 41.468 51.3059 41.7631C51.601 42.0089 52.2403 42.1319 53.2238 42.1319H71.6644C72.6479 42.1319 73.2626 42.0089 73.5085 41.7631C73.8035 41.468 73.9511 40.8287 73.9511 39.8452Z" fill="#040404"/>
<path d="M97.7793 4.95551V25.6828H120.129C121.113 25.6828 121.728 25.5353 121.973 25.2402C122.268 24.9452 122.416 24.3305 122.416 23.3962V7.24215C122.416 6.25865 122.268 5.64396 121.973 5.39809C121.728 5.10304 121.113 4.95551 120.129 4.95551H97.7793ZM97.7793 30.0348V46.4839H91.3619V0.603516H122.932C126.817 0.603516 128.76 2.54593 128.76 6.43076V24.2076C128.76 28.0924 126.817 30.0348 122.932 30.0348H118.58L128.907 46.4839H122.268L112.015 30.0348H97.7793Z" fill="#040404"/>
<path d="M145.616 42.1319H171.285V46.4839H139.051V0.603516H170.253V4.95551H145.616V20.8145H167.229V25.1665H145.616V42.1319Z" fill="#040404"/>
</svg>
