<svg width="249" height="55" viewBox="0 0 249 55" fill="none" xmlns="http://www.w3.org/2000/svg">
<path d="M31.969 13.4865H24.4934C22.3941 13.4865 20.4542 14.587 19.4046 16.3733L14.5629 24.6131C13.5132 26.3995 13.5132 28.6003 14.5629 30.3867L19.4046 38.6265C20.4542 40.4128 22.3941 41.5133 24.4934 41.5133H31.969V13.4865Z" fill="#FCFEFF"/>
<path fill-rule="evenodd" clip-rule="evenodd" d="M10.9485 5.7735C13.0478 2.20085 16.9274 0 21.126 0H39.874C44.0726 0 47.9522 2.20085 50.0515 5.7735L59.4255 21.7265C61.5248 25.2992 61.5248 29.7008 59.4255 33.2735L50.0515 49.2265C47.9522 52.7992 44.0726 55 39.874 55H21.126C16.9274 55 13.0478 52.7992 10.9485 49.2265L1.57447 33.2735C-0.524824 29.7008 -0.524823 25.2992 1.57447 21.7265L10.9485 5.7735ZM21.126 5.7735H39.874C41.9733 5.7735 43.9131 6.87393 44.9628 8.66025L54.3368 24.6133C55.3864 26.3996 55.3864 28.6004 54.3368 30.3868L44.9628 46.3397C43.9131 48.1261 41.9733 49.2265 39.874 49.2265H21.126C19.0267 49.2265 17.0869 48.1261 16.0372 46.3397L6.66324 30.3867C5.6136 28.6004 5.6136 26.3996 6.66324 24.6132L16.0372 8.66025C17.0869 6.87393 19.0267 5.7735 21.126 5.7735Z" fill="#FCFEFF"/>
<path d="M31.969 13.4865H24.4934C22.3941 13.4865 20.4542 14.587 19.4046 16.3733L14.5629 24.6131C13.5132 26.3995 13.5132 28.6003 14.5629 30.3867L19.4046 38.6265C20.4542 40.4128 22.3941 41.5133 24.4934 41.5133H31.969V13.4865Z" fill="#FCFEFF"/>
<path d="M98.554 50C94.1269 50 90.3745 49.1577 87.2967 47.4732C84.2611 45.7887 81.9421 43.2404 80.34 39.8282C78.78 36.416 78 32.1399 78 27C78 19.3117 79.813 13.5671 83.4389 9.7662C87.0648 5.92207 92.1453 4 98.6804 4C102.433 4 105.721 4.62629 108.546 5.87887C111.413 7.08826 113.648 8.92394 115.25 11.3859C116.894 13.8047 117.717 16.893 117.717 20.6507H112.657C112.657 17.8432 112.088 15.554 110.95 13.7831C109.811 11.969 108.188 10.63 106.08 9.7662C104.014 8.85915 101.526 8.40563 98.6172 8.40563C95.4972 8.40563 92.7778 9.03192 90.4589 10.2845C88.14 11.5371 86.3481 13.5023 85.0832 16.1803C83.8184 18.815 83.1859 22.2704 83.1859 26.5465V27.907C83.1859 32.0967 83.8184 35.4873 85.0832 38.0789C86.3481 40.6704 88.14 42.5709 90.4589 43.7803C92.7778 44.9897 95.5183 45.5944 98.6804 45.5944C101.59 45.5944 104.098 45.1624 106.206 44.2986C108.314 43.3915 109.938 42.0526 111.076 40.2817C112.214 38.4676 112.784 36.1568 112.784 33.3493H117.717C117.717 37.1502 116.873 40.2817 115.187 42.7437C113.543 45.2056 111.287 47.0413 108.42 48.2507C105.553 49.4169 102.264 50 98.554 50Z" fill="#FCFEFF"/>
<path d="M143.357 50C138.887 50 135.03 49.1577 131.783 47.4732C128.579 45.7455 126.112 43.1756 124.384 39.7634C122.655 36.3512 121.791 32.0967 121.791 27C121.791 21.8601 122.655 17.6056 124.384 14.2366C126.112 10.8244 128.579 8.27606 131.783 6.59155C135.03 4.86385 138.887 4 143.357 4C147.868 4 151.726 4.86385 154.93 6.59155C158.177 8.27606 160.643 10.8244 162.33 14.2366C164.058 17.6056 164.922 21.8601 164.922 27C164.922 32.0967 164.058 36.3512 162.33 39.7634C160.643 43.1756 158.177 45.7455 154.93 47.4732C151.726 49.1577 147.868 50 143.357 50ZM143.357 45.5944C145.844 45.5944 148.1 45.2704 150.124 44.6225C152.147 43.9315 153.876 42.8516 155.31 41.3831C156.743 39.9146 157.839 38.0573 158.598 35.8113C159.399 33.5653 159.8 30.8657 159.8 27.7127V26.3521C159.8 23.1559 159.399 20.4347 158.598 18.1887C157.839 15.9427 156.743 14.0854 155.31 12.6169C153.876 11.1484 152.147 10.0901 150.124 9.44225C148.1 8.75117 145.844 8.40563 143.357 8.40563C140.869 8.40563 138.613 8.75117 136.59 9.44225C134.608 10.0901 132.9 11.1484 131.467 12.6169C130.033 14.0854 128.916 15.9427 128.115 18.1887C127.356 20.4347 126.977 23.1559 126.977 26.3521V27.7127C126.977 30.8657 127.356 33.5653 128.115 35.8113C128.916 38.0573 130.033 39.9146 131.467 41.3831C132.9 42.8516 134.608 43.9315 136.59 44.6225C138.613 45.2704 140.869 45.5944 143.357 45.5944Z" fill="#FCFEFF"/>
<path d="M171.627 49.2225V4.77746H194.395C197.262 4.77746 199.623 5.33897 201.478 6.46197C203.375 7.54178 204.788 9.03192 205.715 10.9324C206.685 12.8329 207.17 14.9925 207.17 17.4113C207.17 20.5643 206.453 23.2423 205.019 25.4451C203.628 27.6047 201.773 29.138 199.454 30.0451L208.688 49.2225H203.185L194.521 30.9521H176.623V49.2225H171.627ZM176.623 26.5465H193.889C196.461 26.5465 198.484 25.7474 199.96 24.1493C201.436 22.508 202.174 20.262 202.174 17.4113C202.174 15.6836 201.857 14.215 201.225 13.0056C200.592 11.7962 199.665 10.8676 198.442 10.2197C197.22 9.52864 195.702 9.1831 193.889 9.1831H176.623V26.5465Z" fill="#FCFEFF"/>
<path d="M215.418 49.2225V4.77746H248.621V9.1831H220.414V24.2141H245.838V28.6845H220.414V44.8169H249V49.2225H215.418Z" fill="#FCFEFF"/>
</svg>
