<svg width="252" height="55" viewBox="0 0 252 55" fill="none" xmlns="http://www.w3.org/2000/svg">
<path d="M116.439 20.0199H109.948V11.2422C109.948 10.2586 109.8 9.64396 109.505 9.39809C109.21 9.10304 108.595 8.95551 107.661 8.95551H88.7778C87.8434 8.95551 87.2287 9.10304 86.9337 9.39809C86.6386 9.64396 86.4911 10.2586 86.4911 11.2422V43.8452C86.4911 44.8287 86.6386 45.468 86.9337 45.7631C87.2287 46.0089 87.8434 46.1319 88.7778 46.1319H107.661C108.595 46.1319 109.21 46.0089 109.505 45.7631C109.8 45.468 109.948 44.8287 109.948 43.8452V35.0675H116.439V44.6566C116.439 48.5414 114.496 50.4839 110.611 50.4839H85.8272C81.9424 50.4839 80 48.5414 80 44.6566V10.4308C80 6.54593 81.9424 4.60352 85.8272 4.60352H110.611C114.496 4.60352 116.439 6.54593 116.439 10.4308V20.0199Z" fill="#FCFCFC"/>
<path d="M160.295 10.4308V44.6566C160.295 48.5414 158.352 50.4839 154.467 50.4839H130.347C126.462 50.4839 124.52 48.5414 124.52 44.6566V10.4308C124.52 6.54593 126.462 4.60352 130.347 4.60352H154.467C158.352 4.60352 160.295 6.54593 160.295 10.4308ZM153.951 43.8452V11.2422C153.951 10.2586 153.804 9.64396 153.508 9.39809C153.263 9.10304 152.648 8.95551 151.664 8.95551H133.224C132.24 8.95551 131.601 9.10304 131.306 9.39809C131.06 9.64396 130.937 10.2586 130.937 11.2422V43.8452C130.937 44.8287 131.06 45.468 131.306 45.7631C131.601 46.0089 132.24 46.1319 133.224 46.1319H151.664C152.648 46.1319 153.263 46.0089 153.508 45.7631C153.804 45.468 153.951 44.8287 153.951 43.8452Z" fill="#FCFCFC"/>
<path d="M177.779 8.95551V29.6828H200.129C201.113 29.6828 201.728 29.5353 201.973 29.2402C202.268 28.9452 202.416 28.3305 202.416 27.3962V11.2422C202.416 10.2586 202.268 9.64396 201.973 9.39809C201.728 9.10304 201.113 8.95551 200.129 8.95551H177.779ZM177.779 34.0348V50.4839H171.362V4.60352H202.932C206.817 4.60352 208.76 6.54593 208.76 10.4308V28.2076C208.76 32.0924 206.817 34.0348 202.932 34.0348H198.58L208.907 50.4839H202.268L192.015 34.0348H177.779Z" fill="#FCFCFC"/>
<path d="M225.616 46.1319H251.285V50.4839H219.051V4.60352H250.253V8.95551H225.616V24.8145H247.229V29.1665H225.616V46.1319Z" fill="#FCFCFC"/>
<path d="M31.1325 13.2542H39.1588L47.1101 27.0262L39.1588 40.7981H31.1325V13.2542Z" fill="#FCFCFC"/>
<path fill-rule="evenodd" clip-rule="evenodd" d="M15.6036 0H46.8109L62.4145 27.0263L46.8109 54.0526H15.6036L0 27.0263L15.6036 0ZM6.55183 27.0263L18.8795 5.67405H43.535L55.8627 27.0263L43.535 48.3785H18.8795L6.55183 27.0263Z" fill="#FCFCFC"/>
</svg>
